<svg width="106" height="66" viewBox="0 0 106 66" fill="none" xmlns="http://www.w3.org/2000/svg">
<path d="M8.0505 3H97.9495C99.289 3 100.574 3.53211 101.521 4.47926C102.468 5.42641 103 6.71103 103 8.0505V57.5455C103 58.8849 102.468 60.1695 101.521 61.1167C100.574 62.0639 99.289 62.596 97.9495 62.596H8.0505C6.71103 62.596 5.42641 62.0639 4.47926 61.1167C3.53211 60.1695 3 58.8849 3 57.5455V8.0505C3 6.71103 3.53211 5.42641 4.47926 4.47926C5.42641 3.53211 6.71103 3 8.0505 3Z" stroke="white" stroke-width="5.05051"/>
<path d="M15.6262 49.9697V15.6262H25.7272L35.8282 28.2525L45.9293 15.6262H56.0303V49.9697H45.9293V30.2727L35.8282 42.8989L25.7272 30.2727V49.9697H15.6262ZM78.7575 49.9697L63.606 33.303H73.707V15.6262H83.808V33.303H93.9091L78.7575 49.9697Z" fill="white"/>
</svg>
