<svg width="100" height="90" viewBox="0 0 100 90" fill="none" xmlns="http://www.w3.org/2000/svg">
<path fill-rule="evenodd" clip-rule="evenodd" d="M61.7111 55.6581L59.7929 58.9888C59.2151 59.9922 58.1454 60.6106 56.9875 60.6106H42.2933C41.1354 60.6106 40.0657 59.9922 39.4878 58.9888L37.5695 55.6581H61.7111ZM67.081 46.3338L63.6988 52.2064H35.5817L32.1997 46.3338H67.081ZM63.8231 37.2158L67.0864 42.8823H32.1943L35.4576 37.2158H63.8231ZM56.9875 28.5962C58.1454 28.5962 59.2151 29.2146 59.7929 30.2179L61.8353 33.7642H37.4454L39.4878 30.2179C40.0657 29.2146 41.1354 28.5962 42.2933 28.5962H56.9875Z" fill="#00435B"/>
<path d="M20.9074 27.0506C19.2796 19.1576 18.9303 13.1038 19.9824 8.70789C20.6082 6.09345 21.7523 3.96062 23.4919 2.42183C25.3285 0.797261 27.6505 8.36118e-05 30.2596 8.36118e-05C34.5638 8.36118e-05 39.0886 1.96285 43.9241 5.69158C45.8964 7.21246 47.9434 9.04564 50.0693 11.1922C50.2385 10.9743 50.4298 10.7689 50.6429 10.5789C56.6531 5.22295 61.7133 1.8952 66.0413 0.612119C68.6147 -0.1508 71.0308 -0.223484 73.231 0.516956C75.5535 1.29854 77.404 2.91418 78.7096 5.17719C80.8644 8.91195 81.4326 13.8195 80.6293 19.879C80.3018 22.3489 79.742 25.0394 78.9511 27.9545C79.2495 27.9906 79.5486 28.0567 79.8448 28.1548C87.4705 30.6819 92.8703 33.3994 96.1395 36.5051C98.0846 38.3529 99.3547 40.4101 99.8139 42.6872C100.299 45.0907 99.826 47.5015 98.5219 49.7628C96.3712 53.4922 92.4167 56.4335 86.7829 58.7632C84.5208 59.6987 81.9614 60.5459 79.1017 61.3079C79.2322 61.6025 79.3334 61.9154 79.4011 62.2436C81.0289 70.1366 81.3782 76.1904 80.326 80.5863C79.7003 83.2008 78.5562 85.3336 76.8166 86.8724C74.98 88.4969 72.6579 89.2941 70.0489 89.2941C65.7447 89.2941 61.2199 87.3314 56.3844 83.6026C54.3911 82.0656 52.3215 80.2095 50.1713 78.0334C49.95 78.3795 49.6784 78.7011 49.3571 78.9874C43.3469 84.3434 38.2867 87.6712 33.9587 88.9543C31.3853 89.7172 28.9692 89.7899 26.769 89.0494C24.4465 88.2679 22.596 86.6522 21.2904 84.3892C19.1356 80.6544 18.5674 75.7469 19.3707 69.6874C19.71 67.1282 20.2987 64.3322 21.1356 61.2949C20.8085 61.2617 20.48 61.1925 20.1552 61.0849C12.5295 58.5578 7.12969 55.8403 3.86052 52.7346C1.91544 50.8868 0.645278 48.8297 0.186124 46.5526C-0.298514 44.149 0.174045 41.7383 1.47813 39.4769C3.62884 35.7476 7.58335 32.8062 13.2171 30.4765C15.5466 29.5132 18.1914 28.6434 21.1547 27.864C21.0491 27.6055 20.9658 27.3338 20.9074 27.0506Z" fill="#002B3B"/>
<path fill-rule="evenodd" clip-rule="evenodd" d="M40.4916 24.5361C44.4445 24.2215 48.5189 24.0826 52.7147 24.1193C53.5093 24.1263 54.1591 23.4877 54.1661 22.6931C54.169 22.3584 54.0552 22.0332 53.8442 21.7734C44.2942 10.015 36.4306 4.13574 30.2533 4.13574C23.8759 4.13574 22.0565 11.1656 24.7952 25.2253C24.9453 25.996 25.6855 26.504 26.4586 26.367C31.3343 25.5029 36.012 24.8926 40.4916 24.5361Z" fill="#FF4154"/>
<path fill-rule="evenodd" clip-rule="evenodd" d="M62.6817 26.4713C64.9646 29.7608 67.1556 33.2444 69.2547 36.9221C69.6486 37.6123 70.5274 37.8524 71.2176 37.4585C71.507 37.2933 71.73 37.0328 71.8488 36.7214C77.2508 22.5521 78.3861 12.7803 75.2547 7.4061C72.0233 1.86031 64.9824 3.7779 54.1321 13.1589C53.5355 13.6746 53.4653 14.5745 53.9747 15.1766C57.1985 18.9874 60.1008 22.7523 62.6817 26.4713Z" fill="#FF4154"/>
<path fill-rule="evenodd" clip-rule="evenodd" d="M72.2631 46.2666C70.5546 49.8574 68.6342 53.4663 66.5019 57.0933C66.0992 57.7784 66.3281 58.6602 67.0131 59.0629C67.3031 59.2334 67.6438 59.2969 67.9757 59.2423C82.8629 56.7946 91.8526 52.8878 94.9449 47.522C98.1386 41.9802 93.0027 36.9009 79.5372 32.284C78.7954 32.0296 77.9866 32.4161 77.7184 33.153C76.0193 37.823 74.2008 42.1941 72.2631 46.2666Z" fill="#FF4154"/>
<path fill-rule="evenodd" clip-rule="evenodd" d="M60.048 64.8506C56.0951 65.1652 52.0207 65.3042 47.8249 65.2674C47.0303 65.2605 46.3804 65.899 46.3735 66.6936C46.3706 67.0283 46.4844 67.3535 46.6954 67.6133C56.2453 79.3718 64.1089 85.251 70.2862 85.251C76.6637 85.251 78.4831 78.2211 75.7444 64.1614C75.5943 63.3907 74.8541 62.8827 74.081 63.0197C69.2052 63.8838 64.5276 64.4941 60.048 64.8506Z" fill="#FF4154"/>
<path fill-rule="evenodd" clip-rule="evenodd" d="M37.3181 63.0951C35.0352 59.8056 32.8443 56.322 30.7452 52.6443C30.3512 51.9542 29.4724 51.714 28.7823 52.1079C28.4929 52.2731 28.2698 52.5336 28.1511 52.845C22.749 67.0143 21.6137 76.7861 24.7451 82.1603C27.9765 87.7061 35.0174 85.7885 45.8677 76.4075C46.4643 75.8918 46.5345 74.9919 46.0252 74.3898C42.8014 70.579 39.899 66.8141 37.3181 63.0951Z" fill="#FF4154"/>
<path fill-rule="evenodd" clip-rule="evenodd" d="M27.7369 42.7602C29.4455 39.1694 31.3659 35.5605 33.4981 31.9334C33.9008 31.2484 33.672 30.3666 32.9869 29.9638C32.6969 29.7933 32.3563 29.7299 32.0243 29.7844C17.1371 32.2322 8.14742 36.139 5.05511 41.5048C1.8614 47.0466 6.9973 52.1259 20.4628 56.7428C21.2046 56.9972 22.0135 56.6106 22.2816 55.8737C23.9808 51.2038 25.7992 46.8326 27.7369 42.7602Z" fill="#FF4154"/>
<path fill-rule="evenodd" clip-rule="evenodd" d="M43.4745 28.7759H55.8088C57.6126 28.7759 59.2787 29.7407 60.1766 31.3052L66.3698 42.0965C67.2607 43.6489 67.2607 45.5575 66.3698 47.1099L60.1766 57.9013C59.2787 59.4658 57.6126 60.4306 55.8088 60.4306H43.4745C41.6706 60.4306 40.0045 59.4658 39.1067 57.9013L32.9135 47.1099C32.0225 45.5575 32.0225 43.6489 32.9135 42.0965L39.1067 31.3052C40.0045 29.7407 41.6706 28.7759 43.4745 28.7759ZM53.9289 32.033C55.7337 32.033 57.4005 32.9987 58.298 34.5645L62.6167 42.0988C63.5059 43.65 63.5059 45.5564 62.6167 47.1076L58.298 54.6419C57.4005 56.2077 55.7337 57.1735 53.9289 57.1735H45.3543C43.5495 57.1735 41.8827 56.2077 40.9852 54.6419L36.6666 47.1076C35.7774 45.5564 35.7774 43.65 36.6666 42.0988L40.9852 34.5645C41.8827 32.9987 43.5495 32.033 45.3543 32.033H53.9289ZM51.9027 35.5954H47.3805C45.5776 35.5954 43.9122 36.5592 43.014 38.1225L40.7319 42.0943C39.8393 43.6478 39.8393 45.5586 40.7319 47.1121L43.014 51.084C43.9122 52.6472 45.5776 53.6111 47.3805 53.6111H51.9027C53.7057 53.6111 55.3711 52.6472 56.2693 51.084L58.5514 47.1121C59.444 45.5586 59.444 43.6478 58.5514 42.0943L56.2693 38.1225C55.3711 36.5592 53.7057 35.5954 51.9027 35.5954ZM49.9517 39.0051C51.7533 39.0051 53.4176 39.9675 54.3164 41.5289L54.6399 42.0911C55.535 43.6462 55.535 45.5602 54.6399 47.1154L54.3164 47.6775C53.4176 49.2389 51.7533 50.2013 49.9517 50.2013H49.3316C47.53 50.2013 45.8656 49.2389 44.9669 47.6775L44.6434 47.1154C43.7483 45.5602 43.7483 43.6462 44.6434 42.0911L44.9669 41.5289C45.8656 39.9675 47.53 39.0051 49.3316 39.0051H49.9517ZM49.6424 42.364C48.8406 42.364 48.1011 42.7907 47.7008 43.4836C47.3005 44.1763 47.3005 45.0301 47.7008 45.7228C48.1011 46.4157 48.8406 46.8425 49.6408 46.8425C50.4427 46.8425 51.1821 46.4157 51.5825 45.7228C51.9828 45.0301 51.9828 44.1763 51.5825 43.4836C51.1821 42.7907 50.4427 42.364 49.6424 42.364ZM31.4749 44.6032H35.5064H31.4749Z" fill="#FFD94C"/>
</svg>
